<?xml version="1.0" encoding="utf-8"?>
<!-- Generator: Adobe Illustrator 23.0.3, SVG Export Plug-In . SVG Version: 6.00 Build 0)  -->
<svg version="1.1" id="Layer_1" xmlns="http://www.w3.org/2000/svg" xmlns:xlink="http://www.w3.org/1999/xlink" x="0px" y="0px"
	 viewBox="0 0 155 50.64" style="enable-background:new 0 0 155 50.64;" xml:space="preserve">
<style type="text/css">
	.st0{fill:#14AFFF;}
	.st1{fill:#A0F032;}
	.st2{fill:#C1C1C1;}
</style>
<g>
	<g>
		<g id="XMLID_5_">
			<g>
				<path class="st0" d="M67.05,2.66V21.3c0,1.47-1.19,2.66-2.66,2.66c-1.47,0-2.66-1.19-2.66-2.66V2.66c0-1.47,1.19-2.66,2.66-2.66
					c0.73,0,1.4,0.3,1.88,0.78S67.05,1.93,67.05,2.66z"/>
			</g>
		</g>
		<path class="st1" d="M91.82,18.92l-13.69-6.94l13.69-6.94c1.31-0.67,1.84-2.27,1.17-3.58c-0.67-1.31-2.27-1.84-3.58-1.17
			L71.06,9.6l0,0c-0.5,0.25-0.92,0.65-1.19,1.18c-0.67,1.31-0.14,2.92,1.17,3.58l18.38,9.31c1.31,0.67,2.92,0.14,3.58-1.17v0
			C93.66,21.19,93.13,19.59,91.82,18.92z"/>
	</g>
	<g>
		<g>
			<path class="st2" d="M1.05,36.58C0.47,36.58,0,37.06,0,37.65v11.92c0,0.59,0.47,1.07,1.05,1.07c0.58,0,1.05-0.48,1.05-1.07V37.65
				c0-0.29-0.11-0.55-0.31-0.76C1.59,36.7,1.33,36.58,1.05,36.58z"/>
			<path class="st2" d="M6.01,42.41l-0.04,0.03l-0.44,0.22c-0.2,0.1-0.37,0.27-0.47,0.47C4.93,43.39,4.91,43.68,5,43.95
				c0.09,0.27,0.27,0.49,0.52,0.62l11.56,5.96c0.25,0.13,0.54,0.15,0.8,0.06c0.27-0.09,0.48-0.28,0.61-0.53
				c0.13-0.25,0.15-0.54,0.06-0.82c-0.09-0.27-0.27-0.49-0.52-0.62l-9.72-5.01l9.72-5.01c0.25-0.13,0.44-0.35,0.52-0.62
				c0.09-0.27,0.07-0.56-0.06-0.82c-0.13-0.25-0.34-0.44-0.61-0.53c-0.27-0.09-0.55-0.07-0.8,0.06L6.01,42.41z"/>
		</g>
		<path class="st2" d="M44.19,50.43L29.99,39.78l0,9.75c0,0.55-0.39,1.05-0.94,1.1c-0.63,0.06-1.15-0.43-1.15-1.04V37.69
			c0-0.86,0.98-1.35,1.67-0.84L43.78,47.5v-9.75c0-0.55,0.39-1.05,0.94-1.1c0.63-0.06,1.15,0.43,1.15,1.04V49.6
			C45.87,50.46,44.88,50.95,44.19,50.43z"/>
		<path class="st2" d="M96.42,50.64H85.36c-1.57,0-2.75-1.09-2.88-2.65l-0.07-0.85c-0.05-0.58,0.38-1.08,0.96-1.13
			c0.57-0.05,1.08,0.38,1.13,0.96l0.07,0.85c0.04,0.48,0.31,0.73,0.79,0.73h11.06c1.06,0,1.93-0.87,1.93-1.93
			c0-1.06-0.87-1.93-1.93-1.93l-9.93,0.01c-2.22,0-4.03-1.81-4.03-4.02c0-2.22,1.81-4.02,4.03-4.02h11.06
			c1.57,0,2.75,1.09,2.88,2.65l0.07,0.85c0.05,0.58-0.38,1.08-0.96,1.13c-0.58,0.04-1.08-0.38-1.13-0.96l-0.07-0.85
			c-0.04-0.48-0.31-0.73-0.79-0.73H86.49c-1.07,0-1.93,0.87-1.93,1.93s0.87,1.93,1.93,1.93l9.93-0.01c2.22,0,4.03,1.81,4.03,4.02
			C100.44,48.84,98.64,50.64,96.42,50.64z"/>
		<path class="st2" d="M150.92,50.64h-11.06c-1.57,0-2.75-1.09-2.88-2.65l-0.07-0.85c-0.05-0.58,0.38-1.08,0.96-1.13
			c0.57-0.05,1.08,0.38,1.13,0.96l0.07,0.85c0.04,0.48,0.31,0.73,0.79,0.73h11.06c1.06,0,1.93-0.87,1.93-1.93
			c0-1.06-0.87-1.93-1.93-1.93l-9.93,0.01c-2.22,0-4.03-1.81-4.03-4.02c0-2.22,1.81-4.02,4.03-4.02h11.06
			c1.57,0,2.75,1.09,2.88,2.65l0.07,0.85c0.05,0.58-0.38,1.08-0.96,1.13c-0.58,0.04-1.08-0.38-1.13-0.96l-0.07-0.85
			c-0.04-0.48-0.31-0.73-0.79-0.73h-11.06c-1.07,0-1.93,0.87-1.93,1.93s0.87,1.93,1.93,1.93l9.93-0.01c2.22,0,4.03,1.81,4.03,4.02
			C154.95,48.84,153.14,50.64,150.92,50.64z"/>
		<path class="st2" d="M127.39,37.12c-0.36-0.45-1.02-0.52-1.47-0.15l-7.22,5.85l-7.22-5.85c-0.45-0.36-1.11-0.29-1.47,0.15
			c-0.36,0.45-0.29,1.11,0.15,1.47l7.49,6.07v4.94c0,0.58,0.47,1.05,1.05,1.05s1.05-0.47,1.05-1.05v-4.94l7.49-6.07
			C127.69,38.23,127.76,37.57,127.39,37.12z"/>
		<g>
			<path class="st2" d="M72,50.64H56.2c-0.58,0-1.05-0.47-1.05-1.05v-5.95c0-0.58,0.47-1.05,1.05-1.05h13.83
				c0.56,0,1.07,0.4,1.12,0.95c0.05,0.62-0.43,1.14-1.04,1.14H57.26c-0.01,0-0.02,0.01-0.02,0.02v3.83c0,0.01,0.01,0.02,0.02,0.02
				h14.82c0.61,0,1.1,0.52,1.04,1.14C73.07,50.25,72.56,50.64,72,50.64z"/>
			<path class="st2" d="M72.08,38.74H56.2c-0.58,0-1.05-0.47-1.05-1.05c0-0.58,0.47-1.05,1.05-1.05h15.88
				c0.58,0,1.05,0.47,1.05,1.05C73.12,38.27,72.66,38.74,72.08,38.74z"/>
		</g>
	</g>
</g>
</svg>
